<?xml version="1.0" standalone="no"?>
<!DOCTYPE svg PUBLIC "-//W3C//DTD SVG 1.1//EN" "http://www.w3.org/Graphics/SVG/1.1/DTD/svg11.dtd" >
<!--
2013-9-30: Created.
-->
<svg>
<metadata>
Created by iconfont
</metadata>
<defs>

<font id="iconfont" horiz-adv-x="1024" >
  <font-face
    font-family="iconfont"
    font-weight="500"
    font-stretch="normal"
    units-per-em="1024"
    ascent="896"
    descent="-128"
  />
    <missing-glyph />
    
    <glyph glyph-name="x" unicode="x" horiz-adv-x="1001"
d="M281 543q-27 -1 -53 -1h-83q-18 0 -36.5 -6t-32.5 -18.5t-23 -32t-9 -45.5v-76h912v41q0 16 -0.5 30t-0.5 18q0 13 -5 29t-17 29.5t-31.5 22.5t-49.5 9h-133v-97h-438v97zM955 310v-52q0 -23 0.5 -52t0.5 -58t-10.5 -47.5t-26 -30t-33 -16t-31.5 -4.5q-14 -1 -29.5 -0.5
t-29.5 0.5h-32l-45 128h-439l-44 -128h-29h-34q-20 0 -45 1q-25 0 -41 9.5t-25.5 23t-13.5 29.5t-4 30v167h911zM163 247q-12 0 -21 -8.5t-9 -21.5t9 -21.5t21 -8.5q13 0 22 8.5t9 21.5t-9 21.5t-22 8.5zM316 123q-8 -26 -14 -48q-5 -19 -10.5 -37t-7.5 -25t-3 -15t1 -14.5
t9.5 -10.5t21.5 -4h37h67h81h80h64h36q23 0 34 12t2 38q-5 13 -9.5 30.5t-9.5 34.5q-5 19 -11 39h-368zM336 498v228q0 11 2.5 23t10 21.5t20.5 15.5t34 6h188q31 0 51.5 -14.5t20.5 -52.5v-227h-327z" />
    

    
    <glyph glyph-name="shuaxin" unicode="&#58928;" d="M313.344 423.52 176.32 286.496c-1.792 12.736-3.2 25.6-3.2 38.848 0 180.672 147.008 327.744 327.744 327.744 113.088 0 212.928-57.6 271.936-144.96l49.92 7.488c-65.28 110.016-184.96 184.128-321.856 184.128-206.464 0-374.4-168-374.4-374.4 0-0.96 0.256-1.856 0.256-2.88L36.032 422.624 1.408 391.328l164.224-181.504 180.672 180.672L313.344 423.52zM1023.168 203.744l-180.672 181.056-164.288-181.888 34.688-31.36L825.6 296.416c-14.848-167.04-153.984-298.816-324.8-298.816-93.888 0-178.048 40.128-237.824 103.616l-37.632-28.544c68.48-74.56 166.464-121.728 275.52-121.728 193.792 0 353.664 148.032 372.544 336.96l116.8-117.12L1023.168 203.744z"  horiz-adv-x="1024" />

    
    <glyph glyph-name="link1" unicode="&#58912;" d="M205.517 223.549c-77.259 0-140.102 62.844-140.102 140.102s62.844 140.096 140.102 140.096 140.102-62.838 140.102-140.096-62.843-140.102-140.102-140.102zM205.517 452.414c-48.956 0-88.764-39.82-88.764-88.764 0-48.957 39.808-88.764 88.764-88.764 48.945 0 88.764 39.807 88.764 88.764 0 48.945-39.819 88.764-88.764 88.764zM816.511 540.47c-77.245 0-140.102 62.85-140.102 140.102 0 77.259 62.857 140.108 140.102 140.108 77.271 0 140.102-62.849 140.102-140.108-0-77.251-62.831-140.102-140.102-140.102zM816.511 769.342c-48.944 0-88.764-39.826-88.764-88.771 0-48.944 39.82-88.764 88.764-88.764 48.957 0 88.764 39.82 88.764 88.764 0 48.945-39.807 88.771-88.764 88.771zM816.511-54.949c-77.245 0-140.102 62.857-140.102 140.102 0 77.258 62.857 140.114 140.102 140.114 77.271 0 140.102-62.857 140.102-140.114-0-77.245-62.831-140.102-140.102-140.102zM816.511 173.929c-48.944 0-88.764-39.82-88.764-88.776 0-48.931 39.82-88.765 88.764-88.765 48.957 0 88.764 39.833 88.764 88.765 0 48.956-39.807 88.776-88.764 88.776zM302.929 397.893c-9.225 0-18.11 4.975-22.735 13.687-6.606 12.534-1.818 28.063 10.716 34.693l407.157 215.229c12.533 6.649 28.076 1.824 34.693-10.698 6.619-12.534 1.831-28.063-10.704-34.687l-407.169-215.241c-3.811-2.031-7.922-2.983-11.958-2.983zM707.593 94.653c-4.048 0-8.171 0.964-11.995 2.983l-393.119 208.461c-12.509 6.641-17.284 22.184-10.64 34.718 6.618 12.51 22.146 17.297 34.693 10.654l393.106-208.461c12.533-6.642 17.285-22.184 10.654-34.706-4.6-8.685-13.497-13.648-22.698-13.648z"  horiz-adv-x="1024" />

    
    <glyph glyph-name="wuliu-copy" unicode="&#58883;" d="M1007.515 542.055c-7.349 10.969-19.731 17.539-32.968 17.539h-39.621c-21.907 0-39.621-17.622-39.621-39.398v-236.293c0-21.779 17.714-39.396 39.621-39.396h158.48c21.905 0 39.619 17.617 39.619 39.396v59.080c0 7.764-2.315 15.382-6.65 21.843l-118.861 177.229zM1093.406 283.904h-158.48v236.309h39.621l118.861-177.23v-59.078zM1271.538 388.828l-158.48 236.306c-22.128 32.955-59.114 52.605-98.894 52.605h-158.48v78.781c0 65.161-53.318 118.147-118.862 118.147h-594.302c-65.558 0-118.861-52.986-118.861-118.147v-433.234c0-65.161 53.303-118.164 118.861-118.164h0.016v-118.146c0-65.16 53.318-118.163 118.861-118.163h45.223c17.683-67.764 79.209-118.146 152.862-118.146 73.605 0 135.115 50.381 152.846 118.146h209.307c17.73-67.764 79.241-118.146 152.91-118.146 73.589 0 135.115 50.381 152.829 118.146h45.271c65.541 0 118.861 53.003 118.861 118.163v236.31c0 23.382-6.889 46.079-19.968 65.542zM126.266 267.649c-21.857 0-39.619 33.873-39.619 55.638v433.232c0 21.763 17.762 55.638 39.619 55.638h626.814c21.905 0 39.619-33.875 39.619-55.638v-433.234c0-21.763-17.714-55.638-39.619-55.638h-626.814zM462.53-84.329l-8.112 0.062c-49.413 0-89.399 40.047-89.399 89.43 0 49.399 39.986 89.447 89.399 89.447 49.319 0 89.4-40.047 89.4-89.447 0.002-49.382-37.571-89.492-81.288-89.492zM982.673-84.329l-8.126 0.062c-49.414 0-89.385 40.047-89.385 89.43 0 49.399 39.969 89.447 89.385 89.447 49.333 0 89.399-40.047 89.399-89.447-0.002-49.382-37.557-89.492-81.272-89.492zM1172.647 47.58h-45.271c-17.716 67.779-79.241 118.16-152.829 118.16-73.669 0-135.181-50.381-152.91-118.16h-209.308c-17.73 67.779-79.241 118.16-152.846 118.16-73.655 0-135.179-50.381-152.862-118.16h-45.223c-21.905 0-39.621 17.617-39.621 39.396v118.146h515.046c65.542 0 118.862 53.003 118.862 118.164v275.691h158.48c13.237 0 25.62-6.572 32.969-17.539l158.481-236.31c4.333-6.461 20.873-31.59 20.873-39.351v-211.308l2.032-7.493c0-21.779-33.97-39.396-55.874-39.396z"  horiz-adv-x="1315" />

    
    <glyph glyph-name="wotijiaoshenpi" unicode="&#58939;" d="M318.497 438.9h-0.102c0.102-1.536 0.102-2.968 0.102-4.4 0 1.943 0.102 4.4 0 4.4z m361.424-189.41L565.006 132.834c-8.084-8.186-8.084-21.489 0-29.778a20.507 20.507 0 0 1 29.266 0l133.334 135.38 133.436-137.324c8.084-8.288 21.08-8.288 29.061 0 7.982 8.289 7.982 21.694 0 29.982l-114.3 117.78c43.182 18.317 73.471 61.193 73.471 111.027 0 66.615-54.03 120.645-120.645 120.645s-120.645-54.03-120.645-120.645c0-49.323 29.573-91.687 71.937-110.413z m48.708 182.758c40.01 0 72.346-32.438 72.346-72.346s-32.335-72.346-72.346-72.346c-1.33 0.204-2.66 0.204-3.99 0.102-38.17 2.046-68.458 33.666-68.458 72.244 0.102 39.908 32.438 72.346 72.448 72.346z m-410.132 0v2.251c-0.102-1.228-0.102-2.251 0-2.251z m144.795 2.251v0zM945.77 94.462H511.488c-26.605 0-48.299-21.591-48.299-48.3v-96.495c0-26.605 21.592-48.299 48.3-48.299H945.77c26.605 0 48.299 21.592 48.299 48.3v96.495c0 26.708-21.694 48.299-48.299 48.299z m0-144.692H511.488v96.495H945.77v-96.495zM516.502 555.042c-6.242-7.368-22.512-22.512-31.824-26.094-0.204-0.307-13.712-8.39-13.916-8.698 0-24.866-6.345-55.769-7.368-81.453 9.926-2.968 19.852-5.833 29.778-8.8 10.54-3.991 20.977-8.187 30.903-12.791 24.456 9.107 50.857 14.326 78.383 14.94-6.651 4.809-13.61 9.311-20.772 13.712-14.531 8.902-30.29 17.19-46.56 24.149l-24.866 9.824c7.777 5.935 64.672 66.82 69.993 75.518 24.457 40.215 36.736 105.398 18.726 161.781-21.796 68.765-72.653 118.087-143.362 139.474-25.991 7.879-65.08 13.507-98.133 7.265-84.625-15.861-141.315-62.625-169.66-132.925-5.321-13.098-8.494-27.424-11.563-42.67C164.902 631.48 188.233 571.618 211.155 540c6.446-8.903 14.223-16.578 21.182-24.969 8.288-9.925 19.135-18.01 29.777-25.786 2.865-2.15 10.438-4.298 13.303-6.55 0.307-0.306 0.511-0.716 0.818-1.023-9.823-3.888-19.749-7.777-29.572-11.665-16.27-6.958-32.03-15.247-46.56-24.15-69.379-42.773-117.78-102.635-149.4-182.86-6.344-16.168-9.414-33.257-13.711-51.471-7.368-31.518-6.345-70.914-6.345-109.799 0-17.191-1.842-36.429 5.833-46.048 11.46-14.53 48.3-9.925 74.29-9.925h304.427a241.662 241.662 0 0 0-28.345 48.503H77.207c0.102 35.201-6.345 67.23 0 96.496 21.08 97.007 85.24 171.707 160.041 215.708 15.759 9.21 33.257 16.577 51.267 23.433 9.926 2.968 19.852 5.833 29.777 8.8-1.023 25.685-7.367 56.486-7.367 81.454-40.215 22.614-68.049 50.448-83.193 96.803-4.503 13.814-9.312 37.861-5.833 56.28 1.33 7.675 2.66 15.247 3.889 22.922 4.4 15.144 9.618 29.163 17.293 41.34 23.126 36.634 60.783 57.509 106.729 70.812 10.642 3.07 20.465 7.47 33.256 9.414 4.81-0.103 9.721-0.205 14.53-0.307 5.322-0.307 10.643-0.716 15.964-1.023 13.098-2.354 24.15-9.312 34.69-13.303 51.164-19.443 91.788-52.29 106.933-107.957 12.074-44.41-2.661-91.276-21.182-119.212-5.22-7.47-11.666-14.02-17.499-20.875z m-53.21-120.543c0 1.433 0.102 2.865 0.102 4.4h-0.102c-0.103 0-0.103-2.456 0-4.4z"  horiz-adv-x="1024" />

    
    <glyph glyph-name="fapiao1" unicode="&#58880;" d="M937.829994 896H86.175126C52.906197 896 25.939832 870.569596 25.939832 839.220619v-342.647433c16.40407 0 31.9992-3.512232 46.048128-9.819915V829.139592c0 10.521337 9.717517 20.81228 23.945642 20.812279h832.127676c11.724507 0 23.945641-10.234624 23.945642-20.812279v-342.391441a112.094478 112.094478 0 0 0 46.048129 9.825035V839.220619C998.060168 870.569596 971.093803 896 937.829994 896z m14.176926-614.722552v-342.39144c0-10.40358-11.770586-20.80716-23.945642-20.80716H95.933602c-13.20415 0-23.945641 7.669568-23.945642 20.80716v342.39144a112.191755 112.191755 0 0 0-46.048128-9.819914v-342.652554c0-31.359216 26.966366-56.779381 60.230174-56.779381h851.654868c33.263808 0 60.230174 25.420164 60.230175 56.779381v342.652554c-16.40407 0-31.99408 3.507112-46.048129 9.819914zM71.99308 535.837484v-49.084213C111.19082 469.151151 138.505337 429.769096 138.505337 384.0128s-27.309397-85.138352-66.512257-102.735352v-49.089333C137.133212 251.925222 184.548346 312.436989 184.548346 384.0128s-47.415135 132.082458-112.555266 151.824684zM952.00692 486.748151v49.089333C886.871908 516.100377 839.451654 455.58861 839.451654 384.0128s47.420254-132.087578 112.555266-151.824685v49.089333c-39.19774 17.60212-66.507137 56.979056-66.507137 102.735352 0 45.761416 27.309397 85.138352 66.507137 102.735351zM544.465108 514.886968a46.437239 46.437239 0 0 0 0-65.667478c-18.134587-18.129467-47.532892-18.134587-65.662358 0l-233.466163 233.461043A46.437239 46.437239 0 0 0 310.998945 748.342891l233.466163-233.455923zM778.668533 682.680533a46.437239 46.437239 0 0 1-65.667478 65.662358L479.540011 514.886968a46.432119 46.432119 0 0 1 0-65.667478c18.134587-18.129467 47.538012-18.129467 65.667479 0l233.461043 233.461043zM558.80587 52.511327a46.432119 46.432119 0 0 0-46.437239-46.432119 46.432119 46.432119 0 0 0-46.432119 46.432119V492.036979a46.432119 46.432119 0 0 0 46.432119 46.432119 46.437239 46.437239 0 0 0 46.437239-46.432119v-439.525652zM739.353036 283.950021a46.41676 46.41676 0 0 0 46.432119-46.416759 46.426999 46.426999 0 0 0-46.432119-46.442359H306.01731a46.437239 46.437239 0 0 0-46.43212 46.442359c0 25.640319 20.78668 46.41676 46.43212 46.416759h433.335726zM739.353036 461.420144a46.421879 46.421879 0 0 0 46.432119-46.426999 46.421879 46.421879 0 0 0-46.432119-46.426999H306.01731a46.426999 46.426999 0 0 0 0 92.853998h433.335726z"  horiz-adv-x="1024" />

    
    <glyph glyph-name="caigouguanli" unicode="&#58893;" d="M128 824l48 8-48-8zM220.8 252.8l46.4 12.8-46.4-12.8zM931.2 672c-9.6 9.6-22.4 16-35.2 16H198.4c-8 49.6-14.4 91.2-19.2 116.8-3.2 16-16 27.2-32 27.2H96c-12.8 0-24-11.2-24-24C72 793.6 83.2 784 96 784h25.6c8 0 14.4-4.8 16-12.8 8-54.4 22.4-142.4 36.8-228.8 11.2-70.4 22.4-142.4 32-195.2 4.8-27.2 8-49.6 11.2-64l4.8-28.8c16-60.8 38.4-92.8 118.4-92.8H864c12.8 0 24 11.2 24 24s-11.2 24-24 24H339.2c-51.2 0-60.8 11.2-72 52.8 0 1.6 0 4.8 1.6 8 3.2 3.2 6.4 3.2 6.4 3.2H864c24 0 44.8 19.2 48 43.2l32 320c1.6 11.2-3.2 25.6-12.8 35.2z m-81.6-352H272c-8 0-14.4 6.4-16 12.8-1.6 6.4-1.6 12.8-3.2 20.8-8 52.8-20.8 123.2-32 195.2-3.2 24-8 49.6-11.2 73.6-1.6 9.6 6.4 19.2 16 19.2h652.8c9.6 0 17.6-8 16-17.6l-28.8-288c-1.6-9.6-8-16-16-16zM716.8 110.4c-64 14.4-120-41.6-105.6-105.6 8-32 33.6-57.6 65.6-65.6 64-14.4 120 41.6 105.6 105.6-8 32-33.6 57.6-65.6 65.6z m-11.2-124.8c-30.4-8-56 19.2-49.6 48 3.2 14.4 14.4 25.6 28.8 28.8 30.4 6.4 56-19.2 48-48-1.6-14.4-12.8-25.6-27.2-28.8zM460.8 110.4c-64 14.4-120-41.6-105.6-105.6 8-32 33.6-57.6 65.6-65.6 64-14.4 120 41.6 105.6 105.6-8 32-33.6 57.6-65.6 65.6z m-11.2-124.8c-30.4-8-56 19.2-49.6 48 3.2 14.4 14.4 25.6 28.8 28.8 30.4 6.4 56-19.2 49.6-48-3.2-14.4-14.4-25.6-28.8-28.8z"  horiz-adv-x="1024" />

    
    <glyph glyph-name="duizhangguanli" unicode="&#58895;" d="M878.4 832H145.6C100.8 832 64 795.2 64 740.8v-761.6c0-6.4 4.8-20.8 16-30.4 9.6-8 20.8-12.8 32-12.8 12.8 0 25.6 4.8 35.2 14.4l84.8 96c6.4 6.4 17.6 6.4 24 0l83.2-96c9.6-9.6 20.8-14.4 35.2-14.4 12.8 0 25.6 4.8 35.2 14.4l92.8 96c6.4 6.4 17.6 6.4 24 0l92.8-96c9.6-9.6 20.8-14.4 35.2-14.4 12.8 0 25.6 4.8 35.2 14.4l83.2 96c6.4 6.4 17.6 6.4 24 0l84.8-96c9.6-9.6 22.4-14.4 35.2-14.4 11.2 0 20.8 3.2 30.4 11.2 11.2 9.6 17.6 24 17.6 32V740.8C960 795.2 923.2 832 878.4 832zM912 16c0-14.4-9.6-22.4-19.2-11.2l-88 99.2c-12.8 12.8-33.6 12.8-46.4 0l-105.6-118.4c-1.6-1.6-1.6-1.6-3.2 0l-113.6 118.4c-12.8 12.8-33.6 12.8-46.4 0l-113.6-118.4c-1.6-1.6-1.6-1.6-3.2 0l-105.6 118.4c-12.8 12.8-33.6 12.8-46.4 0l-89.6-99.2c-9.6-11.2-19.2-3.2-19.2 11.2V750.4C112 768 128 784 145.6 784h731.2C896 784 912 768 912 750.4V16zM504 688h-288c-12.8 0-24-11.2-24-24s11.2-24 24-24h288c12.8 0 24 11.2 24 24s-11.2 24-24 24zM408 544h-192c-12.8 0-24-11.2-24-24s11.2-24 24-24h192c12.8 0 24 11.2 24 24s-11.2 24-24 24zM824 288H720v48h104c12.8 0 24 11.2 24 24s-11.2 24-24 24h-94.4l78.4 78.4c9.6 9.6 9.6 24 0 33.6-9.6 9.6-24 9.6-33.6 0l-73.6-73.6-83.2 72c-9.6 8-25.6 8-33.6-1.6s-8-25.6 1.6-33.6l84.8-73.6s1.6 0 1.6-1.6h-104c-12.8 0-24-11.2-24-24s11.2-24 24-24H672v-48h-104c-12.8 0-24-11.2-24-24s11.2-24 24-24H672v-40c0-12.8 11.2-24 24-24s24 11.2 24 24V240h104c12.8 0 24 11.2 24 24s-11.2 24-24 24z"  horiz-adv-x="1024" />

    
    <glyph glyph-name="wenjian" unicode="&#58909;" d="M1096.630857 456.704H219.428571a73.142857 73.142857 0 0 1-69.558857-50.761143L73.362286 170.203429V822.052571h365.568c0-80.749714 65.389714-146.139429 146.066285-146.139428h365.421715v-146.139429h73.069714V675.913143a73.142857 73.142857 0 0 1-73.069714 73.142857H584.923429a73.142857 73.142857 0 0 0-73.069715 73.069714A72.996571 72.996571 0 0 1 438.857143 895.122286H73.362286a73.142857 73.142857 0 0 1-73.069715-72.996572V-54.857143a73.142857 73.142857 0 0 1 73.142858-72.996571h876.836571a73.142857 73.142857 0 0 1 69.705143 50.761143l149.577143 460.653714a73.142857 73.142857 0 0 1-72.923429 73.142857zM954.148571-54.857143H73.362286L215.771429 383.561143h880.64L954.221714-54.857143z"  horiz-adv-x="1170" />

    
    <glyph glyph-name="xitongguanli" unicode="&#58898;" d="M510.085374 737.411134c25.114118 0 50.213787-20.085515 50.213786-50.213787v-55.235165l35.156876-10.042758c10.035532-5.021379 15.056911-5.021379 25.106894-10.042757l30.128272-15.064136 25.106893 25.106893 15.064136 15.064136c10.042757 10.042757 20.085515 15.064136 35.149651 15.064136s25.106893-5.021379 35.142425-15.064136v-5.021378c20.085515-20.085515 20.085515-50.213787 0-70.299302l-15.056911-15.064136-25.114118-25.106893 15.064136-30.128272c5.021379-10.042757 5.021379-15.064136 10.049982-25.106894l10.042758-30.128272h55.24239c25.106893 0 50.206562-20.085515 50.206562-50.206562 0-25.106893-20.085515-50.221012-50.206562-50.221011h-55.24239l-10.042758-35.149651c-5.021379-10.049982-5.021379-15.056911-10.049982-25.106894l-15.064136-30.128272 25.114118-25.106893 15.056911-15.071361c20.085515-20.07829 20.085515-50.206562 0-70.292076h-5.014153c-10.042757-10.049982-20.085515-15.071361-35.149651-15.071362s-25.114118 5.021379-35.142426 15.071362l-15.071361 15.056911-25.106893 25.106893-30.128272-15.056911c-10.049982-5.021379-15.071361-5.021379-25.114119-10.049982l-30.128272-10.049983v-55.235165c0-25.106893-20.085515-50.206562-50.213786-50.206562-25.106893 0-50.206562 20.07829-50.206562 50.206562v55.235165l-35.149651 10.049983c-10.042757 5.021379-15.064136 5.021379-25.106893 10.049982l-30.128272 15.056911-25.106894-25.106893-15.064136-15.056911c-10.042757-10.049982-20.085515-15.071361-35.149651-15.071362s-20.085515 5.021379-30.128272 15.071362l-5.021378 5.006928c-20.085515 20.09274-20.085515 50.221012 0 70.299302l15.064136 15.071361 25.106893 25.106893-15.064136 30.128272c-5.021379 5.021379-5.021379 15.064136-10.042757 20.07829l-10.042758 35.149651H208.802653c-30.128272 0-50.213787 20.085515-50.213787 50.221011 0 25.106893 20.085515 50.206562 50.213787 50.206562h55.235165l10.042758 35.149651c5.021379 5.021379 5.021379 15.064136 10.042757 25.106893l15.064136 30.128272-25.106893 25.106894-15.064136 15.078586c-20.085515 20.085515-20.085515 50.213787 0 70.299301h5.021378c10.042757 10.042757 20.085515 15.064136 35.149651 15.064136s25.106893-5.021379 30.128272-15.064136l15.064136-15.064136 25.106894-25.106893 30.128272 15.064136c10.042757 5.021379 20.085515 5.021379 25.106893 10.042757l35.149651 10.042758V687.197347c0 30.128272 20.085515 50.213787 50.213787 50.213787z m0 50.213787c-55.235165 0-100.427574-45.192408-100.427574-100.427574v-20.085515c-10.042757 0-20.085515-5.021379-30.128272-10.042757l-15.056911 15.064136c-15.064136 20.085515-40.171029 30.128272-65.277923 30.128272s-50.213787-10.042757-70.299301-30.128272l-5.021379-5.021379c-40.171029-40.171029-40.171029-100.427574 0-140.598603l15.064136-15.064136c-5.021379-5.021379-10.042757-15.064136-15.064136-25.106893H208.802653c-55.235165 0-100.427574-45.192408-100.427574-100.427574 0-55.24239 45.192408-100.427574 100.427574-100.427573h20.085515c5.021379-10.049982 10.042757-20.09274 10.042757-30.135497l-15.064136-15.064136c-40.171029-40.163804-40.171029-100.427574 0-140.591378l5.021379-5.021379c20.085515-20.09274 45.192408-30.128272 70.299301-30.128272s50.213787 10.035532 70.299302 30.128272l15.064136 15.071361c10.042757-5.035829 20.085515-10.049982 30.128272-10.049982v-15.071361c0-55.235165 45.192408-100.427574 100.427573-100.427574H510.085374c55.24239 0 100.427574 45.199633 100.427573 100.427574v20.078289c10.049982 5.035829 20.085515 10.049982 30.128272 10.049983l15.064136-15.056911c20.085515-20.09274 45.192408-30.128272 70.299302-30.128272 25.106893 0 50.213787 10.035532 70.292076 30.128272l5.021379 5.006928c40.171029 40.178254 40.171029 100.427574 0 140.605828l-15.064136 15.071361c5.021379 10.035532 10.042757 20.07829 10.042757 30.113823h15.071361c55.235165 0 100.420349 45.199633 100.420349 100.434798v-5.014154c0 55.235165-45.192408 100.420349-100.420349 100.420349h-20.085514c-5.021379 10.042757-10.049982 20.085515-10.049983 30.128272l15.064136 15.056911c40.178254 40.171029 40.178254 100.427574 0 140.598603l-5.014153 5.021379c-20.085515 20.085515-45.192408 30.128272-70.299302 30.128272s-50.213787-10.042757-70.292076-30.128272l-15.071361-15.064136c-10.035532 5.021379-20.07829 10.042757-30.128273 10.042757V687.197347C610.512947 742.432513 565.320539 787.624921 510.085374 787.624921M510.085374 486.3422c55.24239 0 100.427574-45.192408 100.427573-100.420349 0-55.24239-45.192408-100.427574-100.427573-100.427573-55.235165 0-100.420349 45.185183-100.420349 100.427573C409.6578 441.149792 454.850208 486.3422 510.085374 486.3422z m0 50.213787c-85.356213 0-150.64136-65.277923-150.641361-150.641361 0-85.370663 65.277923-150.634135 150.641361-150.634135 85.370663 0 150.648585 65.263473 150.648585 150.634135-0.007225 85.363438-65.277923 150.64136-150.648585 150.641361"  horiz-adv-x="1024" />

    
    <glyph glyph-name="kucunguanli1" unicode="&#58887;" d="M810.515901-12.212014H213.484099c-54.275618 0-97.696113 43.420495-97.696113 101.314487V682.515901c0 54.275618 43.420495 101.314488 97.696113 101.314488h597.031802c54.275618 0 101.314488-43.420495 101.314488-101.314488v-597.031802c-3.618375-54.275618-47.038869-97.696113-101.314488-97.696113z m50.657244 694.727915c0 28.946996-21.710247 50.657244-50.657244 50.657244H213.484099c-28.946996 0-50.657244-21.710247-50.657244-50.657244v-597.031802c0-28.946996 21.710247-50.657244 50.657244-50.657244h597.031802c28.946996 0 50.657244 21.710247 50.657244 50.657244V682.515901zM716.438163 103.575972H271.378092c-14.473498 0-25.328622 10.855124-25.328622 25.328622 0 14.473498 10.855124 25.328622 25.328622 25.328622h448.678445c14.473498 0 25.328622-10.855124 25.328622-25.328622-3.618375-14.473498-14.473498-25.328622-28.946996-25.328622zM546.374558 472.650177h-104.932862c-3.618375 0-7.236749 10.855124-7.236749 25.328622 0 14.473498 3.618375 25.328622 7.236749 25.328621h104.932862c3.618375 0 7.236749-10.855124 7.236749-25.328621 0-14.473498-3.618375-25.328622-7.236749-25.328622zM730.911661 472.650177h-104.932862c-3.618375 0-7.236749 10.855124-7.23675 25.328622 0 14.473498 3.618375 25.328622 7.23675 25.328621h104.932862c3.618375 0 7.236749-10.855124 7.236749-25.328621 0-14.473498-3.618375-25.328622-7.236749-25.328622zM361.837456 472.650177H256.904594c-3.618375 0-7.236749 10.855124-7.236749 25.328622 0 14.473498 3.618375 25.328622 7.236749 25.328621H361.837456c3.618375 0 7.236749-10.855124 7.236749-25.328621 0-14.473498-3.618375-25.328622-7.236749-25.328622zM716.438163 599.293286H271.378092c-14.473498 0-25.328622 10.855124-25.328622 25.328622 0 14.473498 10.855124 25.328622 25.328622 25.328622h448.678445c14.473498 0 25.328622-10.855124 25.328622-25.328622-3.618375-14.473498-14.473498-25.328622-28.946996-25.328622zM546.374558 360.480565h-104.932862c-3.618375 0-7.236749 10.855124-7.236749 25.328622 0 14.473498 3.618375 25.328622 7.236749 25.328622h104.932862c3.618375 0 7.236749-10.855124 7.236749-25.328622 0-14.473498-3.618375-25.328622-7.236749-25.328622zM730.911661 360.480565h-104.932862c-3.618375 0-7.236749 10.855124-7.23675 25.328622 0 14.473498 3.618375 25.328622 7.23675 25.328622h104.932862c3.618375 0 7.236749-10.855124 7.236749-25.328622 0-14.473498-3.618375-25.328622-7.236749-25.328622zM361.837456 360.480565H256.904594c-3.618375 0-7.236749 10.855124-7.236749 25.328622 0 14.473498 3.618375 25.328622 7.236749 25.328622H361.837456c3.618375 0 7.236749-10.855124 7.236749-25.328622 0-14.473498-3.618375-25.328622-7.236749-25.328622zM546.374558 251.929329h-104.932862c-3.618375 0-7.236749 10.855124-7.236749 25.328622 0 14.473498 3.618375 25.328622 7.236749 25.328621h104.932862c3.618375 0 7.236749-10.855124 7.236749-25.328621 0-14.473498-3.618375-25.328622-7.236749-25.328622zM730.911661 251.929329h-104.932862c-3.618375 0-7.236749 10.855124-7.23675 25.328622 0 14.473498 3.618375 25.328622 7.23675 25.328621h104.932862c3.618375 0 7.236749-10.855124 7.236749-25.328621 0-14.473498-3.618375-25.328622-7.236749-25.328622zM361.837456 251.929329H256.904594c-3.618375 0-7.236749 10.855124-7.236749 25.328622 0 14.473498 3.618375 25.328622 7.236749 25.328621H361.837456c3.618375 0 7.236749-10.855124 7.236749-25.328621 0-14.473498-3.618375-25.328622-7.236749-25.328622z"  horiz-adv-x="1024" />

    
    <glyph glyph-name="fabu" unicode="&#58888;" d="M207.484587-50.0096l226.606506 205.86752 297.951574-165.489493 284.616106 827.648-1009.3184-386.274134 200.142934-165.522346v-316.226987z m-78.9888 464.413867l787.485866 302.880426-222.114133-625.954133-282.686293 141.348693-141.348267-141.348693v201.920427l-141.3376 121.154133z m644.4928 155.305813L390.988373 353.821867l3.27168-87.602774 378.728534 303.490987z"  horiz-adv-x="1024" />

    
    <glyph glyph-name="zuofei1" unicode="&#58891;" d="M506.526542 503.07799h284.035963v-95.821998a29.045815 29.045815 0 1 1 57.945671 0v126.984217a29.045815 29.045815 0 0 1-8.830511 20.945098L509.664658 886.511944A28.826877 28.826877 0 0 1 488.281684 895.99927H132.06906A58.091631 58.091631 0 0 1 74.123388 837.83466v-827.294879c0-32.110952 25.9077-58.16461 57.945672-58.16461h299.945479v0.364897a29.045815 29.045815 0 0 1 0 57.434816v0.364897H149.438165a17.442085 17.442085 0 0 0-17.369105 17.515065V820.392575c0 9.633285 7.8088 17.442085 17.369105 17.442085H476.240077v-305.783834a29.045815 29.045815 0 0 1 30.359445-28.972836z m27.586227 276.59206l217.624676-218.42745H534.112769V779.74303zM801.801338 98.771919l174.858727 174.858727a29.118795 29.118795 0 0 1-41.087422 41.160401l-174.858727-174.858727-174.858727 174.858727a29.118795 29.118795 0 0 1-41.160402-41.160401l174.858727-174.858727-174.858727-174.785748a29.118795 29.118795 0 1 1 41.160402-41.160402l174.858727 174.858728 174.858727-174.858728a29.118795 29.118795 0 0 1 41.087422 41.160402l-174.858727 174.785748z"  horiz-adv-x="1024" />

    
    <glyph glyph-name="fasong" unicode="&#58964;" d="M902.356 14.307c0-22.2-17.991-40.191-40.191-40.191H154.706c-22.207 0-40.198 17.991-40.198 40.191V745.884c0 22.2 17.991 40.191 40.198 40.191h226.439V838.322h-245.2c-44.394 0-80.383-35.986-80.383-80.389v-755.685c0-44.394 35.989-80.393 80.383-80.393h744.979c44.394 0 80.393 35.999 80.393 80.393V295.682h-58.962v-281.375zM496.217 296.711c15.78-15.626 44.265-12.418 63.623 7.154l250.037 252.649c4.27 4.317 7.597 9.106 10.244 14.058l141.197-130.847-2.683 392.581-418.047-2.676 151.541-140.435c-3.109-2.132-6.122-4.517-8.918-7.337L433.175 429.196c-19.36-19.559-22.254-48.07-6.475-63.693l69.517-68.792z"  horiz-adv-x="1024" />

    
    <glyph glyph-name="jieshou" unicode="&#59452;" d="M441.601138 200.782142H58.764893c-20.36891 0-36.94033 16.572444-36.94033 36.94033V738.268606c0 20.36891 16.571421 36.94033 36.94033 36.94033h526.405082c20.367887 0 36.94033-16.571421 36.94033-36.94033V375.748059l-15.737426-5.030573c-70.217225-22.445198-114.88147-41.540092-132.753513-56.758702-17.46272-14.869662-25.107841-42.593074-22.722514-82.403778a37.062104 37.062104 0 0 0-3.260254-17.528212l-6.03546-13.244652zM67.07721 246.034788h338.15358c0.192382 46.056965 13.295817 80.44824 39.050387 102.378716 21.809725 18.573008 63.016219 37.354769 132.576482 60.300364V729.957313H67.07721v-483.922525zM996.319056 419.101449H759.898485c-14.185071 0-23.642466-9.456373-23.642467-23.641443v-16.548908l-111.116726 30.733979c-21.278629 7.092535-42.556235 4.729721-63.833841-4.727675l-99.29754-42.555212c-35.462676-14.186094-56.740282-49.64877-56.740282-87.476307v-52.012607l-35.4637-9.456373c-23.641443-7.092535-49.647747-9.455349-75.654051-4.727674l-92.203981 14.184047c-14.185071 2.364861-28.370141-2.362814-40.190351-11.82021-11.822257-9.456373-16.548908-23.642466-16.548908-37.82856v-33.098839c0-28.371164 18.912745-54.375421 47.283909-61.46898l274.247085-73.28919c14.185071-4.727675 30.735002-4.727675 44.920072-4.727675 21.277606 0 44.919049 4.727675 66.197678 11.82021l156.035776 63.833841v-11.821233c0-14.185071 9.457396-23.642466 23.642466-23.642467h236.420571c14.185071 0 23.642466 9.456373 23.642466 23.642467v330.988389c2.362814 14.183024-7.092535 23.64042-21.277605 23.64042zM561.305451 57.379081c-26.006304-9.457396-54.376445-11.822257-80.382749-4.729721l-274.247084 73.291236c-7.093559 2.363837-11.821233 9.457396-11.821233 16.549931v35.4637h2.363837l92.203982-14.186094c30.735002-4.727675 63.833841-2.363837 94.568842 4.729721l217.505779 59.105143c11.822257 2.362814 18.913768 16.548908 16.549931 28.369118-2.364861 11.822257-16.549931 21.278629-28.371164 16.549931l-134.759193-37.826514v42.555212c0 18.913768 11.821233 35.4637 28.370141 42.556235l99.296517 42.556235c9.456373 4.726651 21.277606 4.726651 30.735001 2.362814l122.93796-35.461653v-203.320709l-174.950567-68.564585z m411.370115 30.732955H783.539928V371.818563h189.135638v-283.706527zM830.823837 300.891164c0-13.057387 10.585079-23.642466 23.642467-23.642467s23.642466 10.585079 23.642466 23.642467-10.586103 23.642466-23.642466 23.642466-23.642466-10.585079-23.642467-23.642466z"  horiz-adv-x="1024" />

    
    <glyph glyph-name="chakan1" unicode="&#59074;" d="M747.7 607.8c0 17.6-14.4 32.1-32.1 32.1H306.4c-17.6 0-32.1-14.4-32.1-32.1 0-17.6 14.4-32.1 32.1-32.1h409.2c17.7 0 32.1 14.5 32.1 32.1zM306.4 448c-17.6 0-32.1-14.4-32.1-32.1 0-17.6 14.4-32.1 32.1-32.1h191.1c17.7 0 32.2 14.4 32.1 32.1 0 17.6-14.4 32.1-32.1 32.1H306.4z m460.2-328.8c-2.1 2.1-4.4 3.9-6.9 5.2 18.1 25.8 28.7 57.1 28.7 90.9 0 88.2-72.4 159.6-161.7 159.6S465 303.5 465 215.3s72.4-159.6 161.7-159.6c32.7 0 63.2 9.6 88.7 26.1 1.5-2.9 3.4-5.6 5.8-8l83.3-83.3c12.5-12.5 32.9-12.5 45.4 0s12.5 32.9 0 45.4l-83.3 83.3z m-139.9-0.6c-54.1 0-98 43.3-98 96.7s43.9 96.7 98 96.7 98-43.3 98-96.7c0-53.4-43.8-96.7-98-96.7zM577.6 0.6H221.2c-35.2 0-64 28.8-64 64V703.2c0 35.2 28.8 64 64 64h547.3c35.2 0 64-28.8 64-64v-318.4h0.3v-0.1c0-17.7 14.4-32.1 32.2-32.1s32.2 14.4 32.2 32.1c0 1.2-0.1 2.3-0.2 3.5v316c0 70.4-27.6 128-98 128H225c-70.4 0-128-57.6-128-128v-639.8c0-70.4 57.6-128 128-128h352.2c17.8 0 32.2 14.4 32.2 32.1 0 17.6-14.2 31.9-31.8 32.1zM832.7 256.7a32.2 32.1 0 1 1 64.4 0 32.2 32.1 0 1 1-64.4 0z"  horiz-adv-x="1024" />

    
    <glyph glyph-name="chukuguanli" unicode="&#58889;" d="M847.793-61.904h-672.24c-61.872 0-112.04 50.168-112.04 112.04v672.24c0 61.873 50.168 112.04 112.04 112.04h672.24c61.872 0 112.04-50.167 112.04-112.04v-672.24c0.001-61.872-50.168-112.04-112.04-112.04z m56.046 784.28c0 30.962-25.085 56.02-56.046 56.02h-672.24c-30.936 0-56.02-25.058-56.02-56.02v-672.24c0-30.91 25.059-56.02 56.02-56.02h672.24c30.936 0 56.046 25.059 56.046 56.02v672.24z m-140.05-56.02H259.584c-15.481 0-28.01 12.556-28.01 28.01s12.529 28.01 28.01 28.01h504.18c15.48 0 28.034-12.554 28.034-28.01s-12.554-28.01-28.009-28.01z m-272.948-64.823c5.852 5.853 13.603 8.403 21.308 8.003 7.653 0.4 15.43-2.101 21.283-8.003l138.4-167.51c11.027-11.053 11.027-28.91 0-39.914-10.98-11.003-28.786-11.003-39.764 0l-92.383 111.84v-427.803c0-15.456-12.505-28.01-28.01-28.01-15.456 0-28.01 12.555-28.01 28.01V504.9l-91.508-110.74c-10.979-11.054-28.785-11.054-39.764 0-10.979 11.004-10.979 28.86 0 39.913l138.448 167.461z"  horiz-adv-x="1024" />

    
    <glyph glyph-name="chukuguanli-copy" unicode="&#58890;" d="M176.207 829.904l672.24 0c61.87200001 0 112.04-50.16799999 112.04-112.04l-1e-8-672.24c0-61.873-50.16799999-112.04-112.04-112.04l-672.23999999 0c-61.87200001 0-112.04 50.167-112.04 112.04l0 672.23999999c-0.001 61.872 50.16799999 112.04 112.04 112.04000001z m-56.046-784.28c0-30.962 25.085-56.02 56.046-56.02l672.24 0c30.936 0 56.02 25.058 56.02 56.02l0 672.24c0 30.91-25.059 56.02-56.02 56.02000001l-672.24-1e-8c-30.936 0-56.046-25.059-56.046-56.02l0-672.24z m140.05 56.02L764.416 101.644c15.481 0 28.01000001-12.556 28.01-28.01s-12.529-28.01-28.01-28.01l-504.18 0c-15.48 0-28.03399999 12.554-28.034 28.01s12.554 28.01 28.009 28.01z m272.948 64.823c-5.852-5.853-13.603-8.403-21.308-8.003-7.653-0.4-15.43 2.101-21.283 8.003l-138.40000001 167.51c-11.027 11.053-11.027 28.91 1e-8 39.914 10.98 11.003 28.786 11.003 39.764 0l92.383-111.84 0 427.803c0 15.456 12.505 28.01 28.01 28.01 15.456 0 28.01-12.555 28.01-28.01L540.335 263.1l91.508 110.74c10.979 11.054 28.78500001 11.054 39.764 0 10.979-11.004 10.97900001-28.86 0-39.913l-138.448-167.461z"  horiz-adv-x="1024" />

    
    <glyph glyph-name="jichushuju" unicode="&#58929;" d="M875.646643-1.35689H264.141343c-7.236749 0-18.091873 0-25.328622 3.618374-25.328622 7.236749-43.420495 25.328622-54.275619 47.038869-3.618375 7.236749-7.236749 18.091873-7.236749 28.946997-3.618375 151.971731 0 470.388693 0 622.360424v7.236749c3.618375 7.236749 7.236749 10.855124 10.855124 14.473498 3.618375 0 3.618375 3.618375 7.236749 3.618375h7.236749c3.618375 0 7.236749 0 7.236749-3.618375 7.236749-3.618375 10.855124-7.236749 10.855124-14.473498v-3.618375c7.236749-151.971731-3.618375-470.388693 0-622.360424 0-18.091873 18.091873-32.565371 36.183746-32.565371 260.522968-7.236749 354.600707 0 611.5053 0 7.236749 0 14.473498-3.618375 18.091873-7.236749s7.236749-10.855124 7.236749-18.091873-3.618375-14.473498-10.855124-18.091872c3.618375-7.236749-3.618375-7.236749-7.236749-7.236749z m7.236749 560.848056c3.618375 0 7.236749-3.618375 10.855124-3.618374 7.236749-7.236749 10.855124-21.710247 7.236749-32.565372-3.618375-3.618375-3.618375-7.236749-10.855124-10.855123-39.80212-21.710247-83.222615-36.183746-126.643109-54.275619-18.091873-7.236749-32.565371-25.328622-43.420495-43.420494-18.091873-36.183746-32.565371-75.985866-47.038869-112.169612-7.236749-14.473498-14.473498-28.946996-25.328622-39.80212-28.946996-28.946996-65.130742-43.420495-104.932862-39.80212-14.473498 0-28.946996 7.236749-39.80212 10.855124l-21.710248 10.855124c-43.420495 18.091873-90.459364 0-112.169611-43.420495-7.236749-18.091873-14.473498-39.80212-21.710247-54.275619 0-3.618375-3.618375-7.236749-7.23675-10.855123-3.618375-3.618375-10.855124-7.236749-18.091872-3.618375-7.236749 0-10.855124 7.236749-14.473499 14.473498-3.618375 7.236749-3.618375 10.855124 0 18.091873 7.236749 18.091873 14.473498 39.80212 21.710248 57.893993 7.236749 14.473498 14.473498 25.328622 25.328622 39.80212 25.328622 28.946996 65.130742 47.038869 101.314487 43.420495 14.473498 0 28.946996-7.236749 43.420495-10.855124l21.710247-10.855123c7.236749-3.618375 18.091873-7.236749 25.328622-7.236749 25.328622-3.618375 47.038869 7.236749 65.130742 25.328621 7.236749 7.236749 14.473498 18.091873 18.091873 25.328622 18.091873 36.183746 32.565371 75.985866 47.038869 112.169612 10.855124 21.710247 25.328622 43.420495 43.420495 57.893993 7.236749 3.618375 14.473498 10.855124 21.710247 14.473498 39.80212 18.091873 79.60424 36.183746 123.024735 54.275618h7.23675c7.236749-7.236749 7.236749-7.236749 10.855123-7.236749z"  horiz-adv-x="1024" />

    
    <glyph glyph-name="shangpinfabu" unicode="&#58930;" d="M463.151943 241.074205c-7.236749 0-14.473498 3.618375-18.091872 10.855124-3.618375 7.236749-3.618375 18.091873 3.618374 21.710247l253.286219 282.233216c7.236749 7.236749 21.710247 10.855124 28.946997 0 7.236749-7.236749 10.855124-21.710247 0-28.946997l-253.286219-282.233215s-7.236749-3.618375-14.473499-3.618375z m0 0M792.424028 668.042403L770.713781 99.957597l-224.339223 104.932862c-10.855124 3.618375-25.328622 7.236749-36.183745 7.236749-14.473498 0-28.946996-3.618375-43.420495-10.855123l-97.696113-57.893993 3.618375 86.840989c0 36.183746-18.091873 68.749117-50.657244 83.222615l-148.353357 68.749117 618.742049 285.85159z m43.420495 86.840989c-3.618375 0-7.236749 0-10.855124-3.618374L68.749117 400.282686c-18.091873-7.236749-18.091873-36.183746 0-43.420495l227.957597-101.314488c7.236749-3.618375 14.473498-14.473498 14.473498-21.710247l-3.618375-159.208481c0-14.473498 10.855124-25.328622 21.710248-25.328622 3.618375 0 7.236749 0 10.855123 3.618375l162.826856 94.077738c7.236749 3.618375 14.473498 3.618375 21.710247 0l278.614841-130.261484c3.618375 0 7.236749-3.618375 10.855124-3.618374 10.855124 0 21.710247 10.855124 21.710247 21.710247l25.328622 691.109541c-3.618375 18.091873-14.473498 28.946996-25.328622 28.946996"  horiz-adv-x="1024" />

    
    <glyph glyph-name="xiaoshouguanli" unicode="&#58931;" d="M843.081272 400.282686h-199.010601c-14.473498 0-28.946996 10.855124-36.183745 25.328621-7.236749 14.473498-3.618375 32.565371 7.236749 43.420495l195.392226 195.392226c14.473498 14.473498 39.80212 14.473498 57.893993 0 72.367491-68.749117 86.840989-177.300353 90.459364-220.720848 0-10.855124-3.618375-21.710247-10.855124-28.946996-7.236749-7.236749-18.091873-10.855124-28.946996-14.473498h-75.985866z m-184.537102 43.420494h253.286219c-3.618375 39.80212-18.091873 126.64311-72.367491 180.918728l-180.918728-180.918728z m-86.84099 36.183746c-10.855124 0-21.710247 3.618375-28.946996 10.855123-7.236749 7.236749-10.855124 18.091873-10.855124 28.946997V783.830389c0 10.855124 3.618375 25.328622 14.473498 32.565371 7.236749 7.236749 21.710247 10.855124 32.565371 10.855123 75.985866-7.236749 148.353357-36.183746 206.24735-83.222614 10.855124-3.618375 14.473498-18.091873 18.091873-28.946997 0-10.855124-3.618375-25.328622-10.855124-32.565371l-188.155477-188.155477c-10.855124-10.855124-21.710247-14.473498-32.565371-14.473498z m3.618375 307.561837v-253.286219l180.918728 180.918728c-50.657244 39.80212-112.169611 65.130742-180.918728 72.367491z m0 0M513.809187-62.869258c-115.787986-3.618375-231.575972 43.420495-314.798586 126.64311s-130.261484 195.392226-130.261484 311.180212c0 249.667845 191.773852 455.915194 426.968197 455.915194h10.855124l7.236749-7.236749c7.236749-7.236749 7.236749-7.236749 7.236749-423.349823 0-3.618375 0-7.236749 3.618375-7.23675 3.618375-3.618375 3.618375-3.618375 7.236749-3.618374h358.219081c65.130742 0 72.367491 0 72.367492-21.710248-3.618375-253.286219-188.155477-430.586572-448.678446-430.586572zM474.007067 783.830389c-202.628975-10.855124-361.837456-191.773852-361.837456-408.876325 0-104.932862 43.420495-206.24735 115.787986-282.233216 75.985866-72.367491 177.300353-115.787986 282.233216-112.169611 231.575972 0 390.784452 144.734982 398.021201 361.837456H528.282686c-14.473498 0-28.946996 7.236749-39.802121 18.091872-10.855124 10.855124-14.473498 25.328622-14.473498 39.802121V783.830389z m0 0"  horiz-adv-x="1024" />

    
    <glyph glyph-name="dayinbiaoqian" unicode="&#58932;" d="M879.265018 559.491166v-336.508834h-68.749117v68.749117c0 18.091873-7.236749 36.183746-18.091873 47.038869-10.855124 10.855124-28.946996 18.091873-47.038869 18.091873h-470.388693c-18.091873 0-36.183746-7.236749-47.038869-18.091873-10.855124-10.855124-18.091873-28.946996-18.091873-47.038869v-68.749117H141.116608V559.491166h738.14841m0 65.130742H141.116608c-18.091873 0-32.565371-7.236749-47.038869-18.091873-10.855124-14.473498-18.091873-32.565371-18.091873-47.038869v-336.508834c0-18.091873 7.236749-36.183746 18.091873-47.038869 10.855124-10.855124 28.946996-18.091873 47.038869-18.091873h133.879858v133.879859h470.388693v-133.879859h133.879859c18.091873 0 36.183746 7.236749 47.038869 18.091873 10.855124 10.855124 18.091873 28.946996 18.091873 47.038869V559.491166c3.618375 36.183746-28.946996 65.130742-65.130742 65.130742z m0 0M644.070671-44.777385h-264.141342c-7.236749 0-18.091873 3.618375-25.328622 10.855124-7.236749 7.236749-10.855124 14.473498-10.855124 25.328621v227.957598h68.749117V27.590106h199.0106v191.773852h68.749117V-8.59364c0-7.236749-3.618375-18.091873-10.855124-25.328621-7.236749-7.236749-18.091873-10.855124-25.328622-10.855124z m32.565371 669.399293h-68.749116V758.501767h-199.010601v-133.879859H343.745583V794.685512c0 7.236749 3.618375 18.091873 10.855124 25.328622 7.236749 3.618375 14.473498 7.236749 25.328622 7.236749h264.141342c7.236749 0 18.091873-3.618375 25.328622-10.855123 7.236749-7.236749 10.855124-14.473498 10.855124-25.328622v-166.44523z m0 0M209.865724 454.558304c0-18.091873 14.473498-32.565371 32.565371-32.565371s32.565371 14.473498 32.565371 32.565371-14.473498 32.565371-32.565371 32.565371c-14.473498 3.618375-32.565371-14.473498-32.565371-32.565371z m0 0"  horiz-adv-x="1024" />

    
    <glyph glyph-name="dayinpandiandan" unicode="&#58933;" d="M307.561837 722.318021H151.971731C126.64311 722.318021 108.551237 704.226148 108.551237 678.897527v-701.964665c0-25.328622 21.710247-43.420495 43.420494-43.420495h673.017668c25.328622 0 43.420495 18.091873 43.420495 43.420495V678.897527c0 25.328622-21.710247 43.420495-43.420495 43.420494h-155.590106v-65.130742h133.879859v-658.544169H173.681979V657.187279h133.879858V722.318021z m68.749117 21.710248v-86.84099h224.339223V744.028269h-224.339223z m-68.749117 21.710247c0 25.328622 21.710247 43.420495 43.420495 43.420495h267.759717c25.328622 0 43.420495-18.091873 43.420495-43.420495v-130.261484c0-25.328622-21.710247-43.420495-43.420495-43.420495H354.600707c-25.328622 0-43.420495 18.091873-43.420495 43.420495V765.738516z m0 0M365.45583 186.798587l-90.459364 86.840989c-14.473498 18.091873-14.473498 32.565371 0 50.657244 14.473498 14.473498 32.565371 14.473498 50.657244-3.618375l65.130742-65.130742c14.473498-14.473498 39.80212-14.473498 54.275619 0L651.30742 461.795053c14.473498 10.855124 28.946996 7.236749 43.420495-3.618375 18.091873-18.091873 18.091873-32.565371 7.236749-43.420494-10.855124-10.855124-90.459364-86.840989-231.575971-227.957597-28.946996-28.946996-75.985866-28.946996-104.932863 0z"  horiz-adv-x="1024" />

    
    <glyph glyph-name="pandian" unicode="&#58934;" d="M644.070671 226.600707l39.802121-39.80212c10.855124-10.855124 10.855124-32.565371 0-43.420495-7.236749-7.236749-14.473498-7.236749-21.710248-7.236749-7.236749 0-14.473498 3.618375-21.710247 7.236749l-43.420495 43.420495c-25.328622-14.473498-54.275618-21.710247-79.60424-21.710248-86.840989 0-155.590106 68.749117-155.590106 151.971732 0 83.222615 68.749117 151.971731 155.590106 151.971731s155.590106-68.749117 155.590106-151.971731c0-28.946996-10.855124-61.512367-28.946997-90.459364z m-126.643109 7.236749c50.657244 0 90.459364 39.80212 90.459364 86.840989 0 47.038869-39.80212 86.840989-90.459364 86.84099s-90.459364-39.80212-90.459364-86.84099c0-50.657244 39.80212-86.840989 90.459364-86.840989zM332.890459 718.699647H177.300353c-25.328622 0-43.420495-18.091873-43.420494-43.420495v-701.964664c0-25.328622 21.710247-43.420495 43.420494-43.420495h673.017668c25.328622 0 43.420495 18.091873 43.420495 43.420495V675.279152c0 25.328622-21.710247 43.420495-43.420495 43.420495h-155.590106v-65.130742h133.879859v-658.54417H199.010601V653.568905h133.879858V718.699647z m68.749117 21.710247v-86.840989h224.339223V740.409894h-224.339223z m-68.749117 21.710247c0 25.328622 21.710247 43.420495 43.420495 43.420495h267.759717c25.328622 0 43.420495-18.091873 43.420495-43.420495v-130.261484c0-25.328622-21.710247-43.420495-43.420495-43.420494h-267.759717c-25.328622 0-43.420495 18.091873-43.420495 43.420494V762.120141z m0 0"  horiz-adv-x="1024" />

    
    <glyph glyph-name="shengchengkuaizhao" unicode="&#58935;" d="M148.353357 13.116608c-39.80212 0-83.222615 39.80212-83.222615 90.459364V545.017668c0 50.657244 57.893993 83.222615 90.459364 83.222615h126.64311l57.893992 94.077738c3.618375 10.855124 10.855124 14.473498 21.710248 14.473498h307.561837c7.236749 0 18.091873-3.618375 21.710248-10.855123l61.512367-101.314488h126.64311c43.420495 7.236749 75.985866-50.657244 75.985865-83.222615v-445.06007c0-43.420495-43.420495-83.222615-83.222614-83.222615h-723.674912z m7.236749 553.611307c-7.236749 0-25.328622-7.236749-25.328622-25.328622v-445.06007c0-14.473498 14.473498-25.328622 18.091873-25.328622h723.674912c7.236749 0 25.328622 14.473498 25.328621 25.328622V541.399293s-7.236749 25.328622-25.328621 25.328622h-159.208481l-18.091873 25.328622-47.038869 72.367491c-3.618375 7.236749-10.855124 7.236749-14.473498 7.236749h-246.04947c-7.236749 0-14.473498-3.618375-18.091873-10.855123L325.65371 592.056537l-10.855123-25.328622H155.590106z m354.600707-416.113074c-126.64311 0-231.575972 126.64311-188.155477 260.522968 18.091873 57.893993 65.130742 104.932862 123.024735 123.024735 133.879859 43.420495 260.522968-57.893993 260.522968-188.155477 3.618375-104.932862-86.840989-195.392226-195.392226-195.392226z m0 332.890459c-86.840989 0-148.353357-79.60424-130.261484-159.20848 3.618375-10.855124 7.236749-18.091873 10.855123-28.946997 90.459364-151.971731 253.286219-57.893993 253.286219 54.275619 0 68.749117-57.893993 133.879859-133.879858 133.879858z m0 0"  horiz-adv-x="1024" />

    
    <glyph glyph-name="shengchengbiaoqian" unicode="&#58936;" d="M872.028269 331.533569l-347.363958-347.363958c-43.420495-43.420495-112.169611-43.420495-155.590106 0l-271.378092 267.759718c-43.420495 43.420495-43.420495 112.169611 0 155.590106l347.363958 347.363957c25.328622 28.946996 32.565371 39.80212 57.893993 39.80212h354.600706c28.946996 0 50.657244-21.710247 50.657244-50.657243v-350.982333c0-28.946996-14.473498-39.80212-36.183745-61.512367z m-734.530036-36.183746l271.378092-267.759717c21.710247-21.710247 54.275618-21.710247 75.985866 0l39.80212 39.80212-347.363958 347.363958-39.80212-39.80212c-21.710247-25.328622-21.710247-61.512367 0-79.604241zM857.55477 718.699647c0 14.473498-10.855124 25.328622-25.328622 25.328622h-303.943462c-14.473498 0-32.565371-14.473498-47.03887-28.946997l-271.378092-267.759717 347.363958-347.363958 271.378092 267.759717c14.473498 14.473498 25.328622 32.565371 25.328622 47.03887V718.699647z m-274.996466-253.286219c-43.420495 43.420495-43.420495 112.169611 0 155.590106 43.420495 43.420495 112.169611 43.420495 155.590106 0 43.420495-43.420495 43.420495-112.169611 0-155.590106-47.038869-39.80212-115.787986-39.80212-155.590106 0z m115.787986 115.787985c-21.710247 21.710247-54.275618 21.710247-75.985866 0-21.710247-21.710247-21.710247-54.275618 0-75.985865 21.710247-21.710247 54.275618-21.710247 75.985866 0 18.091873 21.710247 18.091873 54.275618 0 75.985865z m0 0"  horiz-adv-x="1024" />

    
    <glyph glyph-name="tiaozheng" unicode="&#58941;" d="M352 85.3c29.5 0 53.3 23.9 53.3 53.3S381.5 192 352 192s-53.3-23.9-53.3-53.3 23.8-53.4 53.3-53.4z m277.3 256c29.5 0 53.3 23.9 53.3 53.3S658.8 448 629.3 448c-29.5 0-53.3-23.9-53.3-53.3s23.9-53.4 53.3-53.4zM160 426.7h106.7c17.7 0 32-14.3 32-32s-14.3-32-32-32H160c-17.7 0-32 14.3-32 32s14.3 32 32 32z m256 170.6c29.5 0 53.3 23.9 53.3 53.3S445.5 704 416 704s-53.3-23.9-53.3-53.3 23.8-53.4 53.3-53.4z m-90.5 85.4c13.2 37.3 48.7 64 90.5 64s77.4-26.7 90.5-64h336.1c17.7 0 32-14.3 32-32s-14.3-32-32-32H506.5c-13.2-37.3-48.7-64-90.5-64s-77.4 26.7-90.5 64H160c-17.7 0-32 14.3-32 32s14.3 32 32 32h165.5z m213.3-256c13.2 37.3 48.7 64 90.5 64s77.4-26.7 90.5-64h122.8c17.7 0 32-14.3 32-32s-14.3-32-32-32h-122.8c-13.2-37.3-48.7-64-90.5-64s-77.4 26.7-90.5 64H373.3c-17.7 0-32 14.3-32 32s14.3 32 32 32h165.5z m-277.3-320H160c-17.7 0-32 14.3-32 32s14.3 32 32 32h101.5c13.2 37.3 48.7 64 90.5 64s77.4-26.7 90.5-64h378.8c17.7 0 32-14.3 32-32s-14.3-32-32-32H442.5c-13.2-37.3-48.7-64-90.5-64s-77.4 26.7-90.5 64z"  horiz-adv-x="1024" />

    
    <glyph glyph-name="shenpi" unicode="&#58897;" d="M484.352 831.36h0.448c46.848 0 91.008-18.56 124.224-52.16a179.2 179.2 0 0 0 51.712-126.656c0-52.672-22.656-102.4-62.272-136.448l-1.984-1.664-1.792-1.92c-54.592-55.232-71.808-75.52-71.808-133.248 0-17.472-0.128-26.048-0.256-30.848 0.448-58.368 42.304-115.008 117.824-159.488 60.096-35.456 132.8-57.472 189.696-57.472a15.36 15.36 0 0 0 14.848-15.424v-38.72h-46.016V-62.72H170.624V77.312h-46.016v38.72c0 8.512 6.656 15.424 14.784 15.424 56.768 0 129.472 22.016 189.952 57.6 75.84 44.8 117.568 101.696 117.568 160.256v23.296c0 61.12-12.736 79.808-71.936 139.84l-1.792 1.856-1.984 1.728a179.712 179.712 0 0 0-62.464 136.576c0 47.744 18.368 92.672 51.968 126.72a173.888 173.888 0 0 0 123.648 52.032m0 64a236.8 236.8 0 0 1-169.344-71.232 242.56 242.56 0 0 1-70.272-171.52 243.84 243.84 0 0 1 84.672-185.088c53.504-54.272 53.504-58.048 53.504-94.912v-23.36c0-34.496-31.36-72.832-86.144-105.152-50.24-29.568-112-48.704-157.376-48.704-43.456 0-78.784-35.648-78.784-79.424v-69.952c0-18.112 14.72-32.768 32.832-32.768h13.184v-107.264c0-18.112 14.72-32.768 32.832-32.768h690.752a32.832 32.832 0 0 1 32.832 32.768v107.264h13.504a32.576 32.576 0 0 1 32.512 32.704v70.016c0 43.84-35.392 79.424-78.848 79.424-45.312 0-107.008 19.008-157.184 48.64-54.72 32.192-86.144 70.464-86.4 104.896 0.064 1.664 0.256 10.816 0.256 30.336 0 30.4 0 34.24 53.312 88.32a243.712 243.712 0 0 1 84.544 184.96 242.688 242.688 0 0 1-70.144 171.584A237.056 237.056 0 0 1 484.8 895.36h-0.448zM169.088 78.08h630.336v-64H169.088z"  horiz-adv-x="1024" />

    
    <glyph glyph-name="bianji" unicode="&#59071;" d="M343.04 338.432c-0.512-0.512-1.024-1.536-1.536-2.56L296.96 175.104c-2.56-9.216 0-19.456 7.168-26.624 5.12-5.12 12.288-7.68 19.968-7.68 2.56 0 5.12 0.512 7.168 1.024l164.352 43.52h0.512c2.048 0 3.584 0.512 5.12 2.048L940.032 614.4c12.8 12.8 19.968 30.208 19.968 48.64 0 21.504-9.216 42.496-25.6 58.368l-41.472 40.448c-16.384 15.872-38.4 25.088-59.904 25.088-19.456 0-36.864-7.168-50.176-19.456l-438.784-427.008c-0.512-1.024-0.512-1.536-1.024-2.048z m482.304 386.56c6.656 6.656 19.968 5.632 27.648-2.048l41.472-40.448c4.096-4.096 6.656-9.728 6.656-15.36 0-4.608-1.536-8.704-4.608-11.776l-43.52-42.496-70.656 69.632 43.008 42.496zM737.792 640l70.656-70.144-315.904-307.712-71.168 69.12L737.792 640z m-351.232-351.232l60.928-59.392-83.968-22.528 23.04 81.92zM924.672 486.912c-16.384 0-30.208-13.312-30.208-29.696v-397.824c0-20.992-17.408-37.888-38.912-37.888H163.328c-21.504 0-38.912 16.896-38.912 37.888V709.12c0 20.992 17.408 37.888 38.912 37.888h445.44c16.896 0 30.208 13.312 30.208 29.696 0 16.384-13.312 29.696-30.208 29.696H158.72c-52.224 0-94.72-41.472-94.72-92.16v-658.944c0-50.688 42.496-92.16 94.72-92.16h701.44c52.224 0 94.72 41.472 94.72 92.16V457.216c0 16.384-13.824 29.696-30.208 29.696z"  horiz-adv-x="1024" />

    
    <glyph glyph-name="shangchuan" unicode="&#58972;" d="M910.2 384c-27.5 0-49.8-22.3-49.8-49.8v-316.5c0-17.6-17.2-31.9-38.4-31.9H201.9c-21.1 0-38.4 14.3-38.4 31.9V334.2c0 27.5-22.3 49.8-49.8 49.8S64 361.7 64 334.2v-316.5c0-72.5 61.9-131.5 137.9-131.5h620.2c76 0 137.9 59 137.9 131.5V334.2c0 27.5-22.3 49.8-49.8 49.8zM294.2 594l168 134.4v-543.5c0-27.5 22.3-49.8 49.8-49.8 27.5 0 49.8 22.3 49.8 49.8V728.4l168-134.4c9.2-7.3 20.2-10.9 31.1-10.9 14.6 0 29.1 6.4 38.9 18.7 17.2 21.5 13.7 52.8-7.8 70L543.1 870.9c-18.2 14.5-44 14.5-62.2 0L232 671.8c-21.4-17.2-24.9-48.5-7.8-70 17.2-21.4 48.5-25 70-7.8z"  horiz-adv-x="1024" />

    
    <glyph glyph-name="daohangshouye" unicode="&#58884;" d="M104.748753 360.75208c-9.18387-0.001024-18.350333 3.600233-25.206749 10.753596-13.340112 13.918647-12.870115 36.015639 1.048532 49.355751L455.824695 780.482292c15.076743 14.456225 35.025473 22.421586 56.167113 22.421586 21.133448 0 41.082179-7.960242 56.173257-22.413395l375.241328-359.629056c13.918647-13.339088 14.38762-35.43608 1.047508-49.355751-13.339088-13.917623-35.43608-14.388644-49.355751-1.048532L519.866038 730.0780090000001c-4.187984 4.011864-11.542043 4.020055-15.727979 0.006144L128.897754 370.45714499999997C122.133494 363.97344899999996 113.433956 360.753104 104.748753 360.75208zM779.622424-34.911046000000056L639.994624-34.911046000000056c-44.911778 0-81.450659 36.537857-81.450659 81.448611L558.543965 197.80468399999995l-93.08793 0 0-151.268143c0-44.910754-36.538881-81.448611-81.450659-81.448611L244.375528-34.91206999999997c-44.911778 0-81.450659 36.537857-81.450659 81.448611L162.924869 349.07180300000005c0 19.279062 15.628656 34.907718 34.907718 34.907718 19.279062 0 34.907718-15.628656 34.907718-34.907718l0-302.534238c0-6.415091 5.220133-11.633175 11.636247-11.633175l139.628824 0c6.416115 0 11.636247 5.219109 11.636247 11.633175L395.641623 232.712402c0 19.279062 15.628656 34.907718 34.907718 34.907718l162.903366 0c19.279062 0 34.907718-15.628656 34.907718-34.907718l0-186.174837c0-6.415091 5.220133-11.633175 11.635223-11.633175l139.6278 0c6.417138 0 11.637271 5.219109 11.637271 11.633175L791.260719 349.07180300000005c0 19.279062 15.628656 34.907718 34.907718 34.907718s34.907718-15.628656 34.907718-34.907718l0-302.534238C861.075131 1.6257879999999432 824.535226-34.911046000000056 779.622424-34.911046000000056zM861.369007 570.197364c-19.279062 0-34.907718 15.628656-34.907718 34.907718l0 127.994624L698.468712 733.099706c-19.279062 0-34.907718 15.628656-34.907718 34.907718s15.628656 34.907718 34.907718 34.907718l127.994624 0c38.495663 0 69.813388-31.318749 69.813388-69.815436l0-127.994624C896.276724 585.826019 880.648069 570.197364 861.369007 570.197364z"  horiz-adv-x="1024" />

    
    <glyph glyph-name="shengchengbaogao" unicode="&#58914;" d="M203.712187 682.688746H736.65533v-76.134735H203.712187V682.688746z m359.355948-228.404204C541.750409 432.205469 523.478073 406.319659 509.012473 378.149807H203.712187V454.284542h359.355948z m-91.361682-232.210941c0-24.363115 2.284042-48.80541 7.613473-72.327998H203.712187V225.880338h267.994266v-3.806737zM51.442718 834.958215v-913.616816H651.384427c-36.544673 19.033684-68.521261 44.919493-95.168418 76.134735H144.327094v761.347346h651.713329v-194.90492c6.090779 0.761347 12.181558 0.761347 18.193156 0.761347 25.96499 0 50.248925-3.045389 74.61204-8.374821V834.958215H51.442718zM864.945403 397.640299l143.742379-145.569613 0.15227-0.146178 5.177162-5.256342c4.568084-4.714263 6.017689-11.566389 5.104072-18.881415 0.07918-0.986706 0.535989-1.748054 0.535989-2.74085 0-0.986706-0.456808-1.748054-0.535989-2.740851 0.761347-7.461204-0.761347-14.23415-5.408611-18.881414l-5.329432-5.104072-0.07918-0.225359-145.490433-143.742379c-10.512684-10.281235-30.837613-6.474498-45.76002 8.44791-14.770139 15.001588-18.272336 35.405697-7.918013 45.760021l80.392189 79.180124-212.641268 1.443514a38.067367 38.067367 0 0 0 0.535988 76.134735l212.562089-1.443514-79.259305 80.32519c-10.202054 10.433504-6.395318 30.837613 8.454001 45.680841 14.928499 14.611778 35.332608 18.113976 45.766112 7.759652zM890.447494 516.715024H888.924799c-23.601768 6.852126-48.72623 9.897516-74.61204 9.897516-5.250251 0-11.34103 0-16.749642-0.761348h-1.522694c-67.759914-3.806737-129.429049-29.692547-178.155279-71.56665-1.522695-1.522695-3.045389-2.284042-4.568084-3.806737-24.363115-20.556378-44.158146-44.919493-60.146441-72.327998-0.761347-1.522695-1.522695-2.284042-2.284042-3.806737-25.124462-44.158146-40.351409-94.407071-41.112757-148.462732v-3.806737c0-25.124462 3.045389-49.487578 9.136169-72.327998 0-1.522695 0.761347-2.284042 0.761347-3.806737 14.4656-58.623746 46.442188-109.634018 89.838987-148.462732l3.806737-3.806737c43.396799-38.067367 96.770293-63.953177 156.076206-72.327998 14.4656-2.284042 29.771727-3.806737 44.919493-3.806737l76.134735 9.897516c134.533122 34.455536 228.568655 155.765576 228.404204 294.641423 0 141.610607-96.691113 261.14214-228.404204 294.641423z m0-536.749879H888.924799a251.378622 251.378622 0 0 0-184.166878 13.783432 27.103966 27.103966 0 0 0-6.931306 3.727557 251.013175 251.013175 0 0 0-137.042522 224.597467c0 57.101051 19.033684 109.634018 51.010272 152.269469 24.363115 32.737936 56.339704 58.623746 92.884376 76.134735 28.169852 13.704252 59.385093 22.079073 92.884376 24.363115 5.329431 0.761347 11.42021 0.761347 16.749642 0.761347 26.726337 0 51.8508-3.806737 76.134735-11.42021 105.528833-33.481011 177.272116-131.39028 177.393932-242.108456 0-113.440755-74.61204-209.37052-177.393932-242.108456z"  horiz-adv-x="1145" />

    
    <glyph glyph-name="chakan" unicode="&#58979;" d="M512.003 725.329C173.698 725.329 0 384.031 0 384.031s131.077-341.36 512.003-341.36c345.023 0 511.997 340.017 511.997 340.017S855.616 725.329 512.003 725.329z m0.768-554.647c-123.71 0-213.122 93.348-213.122 213.349 0 120.006 89.412 213.355 213.122 213.355s213.122-93.348 213.122-213.355c0-120-89.412-213.349-213.122-213.349z m0 341.36c-70.656-0.125-127.868-59.454-127.868-128.011S442.116 256.02 512.771 256.02c70.718 0 127.874 59.454 127.874 128.011s-57.156 128.142-127.874 128.011z m0 0"  horiz-adv-x="1024" />

    
    <glyph glyph-name="bohui" unicode="&#58937;" d="M122.529582 565.345343c-14.623941-0.064-26.463892-12.479949-26.527892-27.807887v-29.759879c0.064-15.295938 11.903952-27.711887 26.527892-27.775887h202.815176c14.71994 0 26.655892 12.511949 26.655892 27.903887v29.631879c-0.064 15.359938-11.999951 27.807887-26.655892 27.807887H282.624932L248.033072 619.681123c20.095918 9.599961 34.143861 30.719875 34.143862 55.359775C282.176934 708.704761 256.129039 736.00065 224.00117 736.00065s-58.175764-27.295889-58.175764-60.927752c0-24.6719 14.079943-45.855814 34.207861-55.391775l-34.559859-54.30378H122.529582z m202.815176-24.383901c1.823993 0 3.295987-1.535994 3.359987-3.423986v-29.631879a3.455986 3.455986 0 0 0-3.359987-3.391987H122.529582a3.455986 3.455986 0 0 0-3.263987 3.391987v29.631879a3.455986 3.455986 0 0 0 3.263987 3.423986h202.815176zM189.089312 675.072898c0 20.191918 15.615937 36.575851 34.911858 36.575851 9.247962 0 18.143926-3.839984 24.6719-10.719957 6.559973-6.847972 10.207959-16.159934 10.207958-25.855894 0-20.223918-15.615937-36.607851-34.911858-36.607852s-34.879858 16.383933-34.879858 36.607852z m34.943858-61.56775l30.655875-48.159805H193.377294l30.655876 48.159805z m311.646734-695.997173H44.865898V850.496185h762.684901v-443.742197c0-12.575949 10.047959-22.751908 22.431909-22.751908a22.559908 22.559908 0 0 1 22.431909 22.751908V873.248092a22.911907 22.911907 0 0 1-6.559973 16.095935 22.04791 22.04791 0 0 1-15.839936 6.655973H22.433989a22.23991 22.23991 0 0 1-15.871936-6.655973A23.007907 23.007907 0 0 1 0.00208 873.248092v-978.492024a23.039906 23.039906 0 0 1 6.559973-16.095935c4.223983-4.255983 9.91996-6.655973 15.871936-6.655973H535.679904c12.38395 0 22.431909 10.175959 22.431909 22.751908s-10.047959 22.751908-22.431909 22.751907z m137.311442 621.917474h-195.967204a22.591908 22.591908 0 0 1-22.431909-22.783908c0-12.575949 10.047959-22.751908 22.431909-22.751907h195.967204a22.591908 22.591908 0 0 1 22.431909 22.751907 22.591908 22.591908 0 0 1-22.431909 22.783908z m0 174.55929h-195.967204a22.591908 22.591908 0 0 1-22.431909-22.783907c0-12.575949 10.047959-22.751908 22.431909-22.751908h195.967204a22.591908 22.591908 0 0 1 22.431909 22.751908 22.623908 22.623908 0 0 1-22.431909 22.783907z m66.46373-778.460837l-107.391564 129.567474L575.99974 94.275257c0-19.039923 15.135939-34.943858 18.143926-34.943858l133.183459-158.751355c3.039988-3.199987 12.127951-12.703948 21.215914-12.703948 9.055963 0 15.135939 6.335974 18.111926 12.703948 3.071988 6.335974 3.071988 12.671949 3.071988 22.20791v70.591713l-30.271877 15.743936v-73.599701z m-245.919001 209.535149c12.38395 0 22.399909 10.175959 22.399909 22.751907a22.559908 22.559908 0 0 1-22.399909 22.783908H157.025442a22.591908 22.591908 0 0 1-22.431909-22.783908c0-12.575949 10.047959-22.751908 22.431909-22.751907h336.510633z m273.15089 38.175845v73.023703c0 3.167987 0 12.671949-6.015975 22.20791s-18.143926 9.535961-33.279865 3.199987h-3.071988l-133.183458-152.447381c-3.007988-3.167987-15.135939-19.039923-15.135939-34.943858l54.815777-27.647888-12.447949 14.975939c-3.007988 3.199987-9.055963 9.535961-9.055963 12.703949 0 3.167987 3.007988 9.503961 6.047975 12.671948l118.015521 133.375459v-92.095626h15.167938c169.503311 0 220.927102-120.67151 236.095041-203.263175-69.631717 92.095626-163.455336 101.631587-205.855164 101.631588h-24.223901l-15.135939-3.167988v-31.743871l30.271877-15.295937v18.431925c38.815842 0 145.375409-6.399974 212.191138-125.63149l31.423872-15.871935c9.183963 3.231987 10.687957 14.527941 10.687957 17.727928-3.007988 47.615807-21.183914 279.422865-257.310955 292.158813z m3.071988-189.823229l217.759115-113.439539c-0.991996 1.407994-2.015992 2.783989-2.847988 4.73598-0.863996 1.599994-1.855992 3.007988-2.719989 4.575982l-212.191138 107.199564v-3.071987z m-30.303877 15.743936v2.591989l-108.671559 54.879777 1.247995-1.535993 107.423564-55.935773z m-156.191366 333.214646a22.559908 22.559908 0 0 1-22.431908 22.751908H157.025442a22.591908 22.591908 0 0 1-22.431909-22.751908c0-12.607949 10.047959-22.783907 22.431909-22.783907h403.77436a22.623908 22.623908 0 0 1 22.463908 22.783907z m404.222358-462.398121a18.015927 18.015927 0 0 1 15.327938-7.967968l-15.327938 7.967968z"  horiz-adv-x="1024" />

    
    <glyph glyph-name="daochu" unicode="&#59041;" d="M927.288889 310.044444c-22.755556 0-39.822222-17.066667-39.822222-39.822222v-227.555555c0-22.755556-17.066667-39.822222-39.822223-39.822223H170.666667c-22.755556 0-39.822222 17.066667-39.822223 39.822223v227.555555c0 22.755556-17.066667 39.822222-39.822222 39.822222-17.066667 0-34.133333-17.066667-34.133333-39.822222v-227.555555c0-62.577778 51.2-113.777778 113.777778-113.777778h682.666666c62.577778 0 113.777778 51.2 113.777778 113.777778v227.555555c0 22.755556-17.066667 39.822222-39.822222 39.822222zM716.8 486.4l-164.977778-164.977778V799.288889c0 22.755556-17.066667 39.822222-39.822222 39.822222s-39.822222-17.066667-39.822222-39.822222V327.111111L307.2 492.088889c-17.066667 17.066667-39.822222 17.066667-51.2 0-17.066667-17.066667-17.066667-39.822222 0-51.2l227.555556-227.555556c17.066667-17.066667 34.133333-17.066667 51.2-17.066666 5.688889 0 11.377778 5.688889 11.377777 5.688889l227.555556 227.555555c17.066667 17.066667 17.066667 39.822222 0 51.2-17.066667 22.755556-39.822222 22.755556-56.888889 5.688889z"  horiz-adv-x="1024" />

    


  </font>
</defs>
</svg>
